# xmcd
#
# Track frame offsets:
#	150
#	12864
#	28126
#	41701
#	55536
#	67761
#	77851
#	90526
#	105756
#	115994
#	131070
#
# Disc length: 1869 seconds
#
# Revision: 1
# Processed by: cddbd v1.5.1PL0 Copyright (c) Steve Scherf et al.
# Submitted via: audiograbber 1.83.01
#
DISCID=80074b0b
DTITLE=Peggy Little - More Than A Little
DYEAR=1900
DGENRE=Country
TTITLE0=I Knew You'd Be Leaving
TTITLE1=Statue of A Fool
TTITLE2=Walk A Mile In My Shoes
TTITLE3=Love's Biggest Fool
TTITLE4=A Woman's Hand
TTITLE5=I Wish I Didn't Have To Miss You
TTITLE6=Mama, I Won't Be Wearing A Ring
TTITLE7=Born To Lose
TTITLE8=Gentle Man
TTITLE9=He Goes Walking Through My Mind
TTITLE10=Put Your Lovin' Where Your Mouth Is
EXTD=
EXTT0=
EXTT1=
EXTT2=
EXTT3=
EXTT4=
EXTT5=
EXTT6=
EXTT7=
EXTT8=
EXTT9=
EXTT10=
PLAYORDER=
